<svg width="102" height="59" viewBox="0 0 102 59" fill="none" xmlns="http://www.w3.org/2000/svg">
<path d="M37.0166 52.3323C37.0166 52.3323 48.1429 49.3853 64.1745 50.9306C80.2063 52.4761 91.3033 57.5668 91.3033 57.5668" stroke="white" stroke-width="2" stroke-linecap="round"/>
<path d="M1.01899 17.2725C0.920891 15.7792 1.20292 14.2613 1.86506 12.719C2.55173 11.1766 3.48365 9.71995 4.66081 8.34896C5.83795 6.95351 7.18677 5.70494 8.70725 4.60328C10.2277 3.50158 11.785 2.64472 13.3791 2.03268C14.9977 1.39616 16.5795 1.05341 18.1245 1.00445C19.694 0.955488 21.0796 1.31047 22.2813 2.06941C23.5075 2.80386 24.4884 3.97899 25.2242 5.59477C25.9844 7.21056 26.3645 9.3772 26.3645 12.0947C26.3645 13.1229 26.2664 14.1634 26.0702 15.2161C25.8986 16.2688 25.6411 17.297 25.2977 18.3008C24.9544 19.2801 24.5375 20.2226 24.047 21.1284C23.5811 22.0098 23.0538 22.7932 22.4652 23.4787C22.3671 23.6011 22.1954 23.7112 21.9502 23.8092C21.7295 23.9071 21.521 23.9683 21.3248 23.9928C21.1287 23.9928 20.9815 23.9561 20.8834 23.8826C20.7853 23.7847 20.8344 23.6256 21.0306 23.4052C21.521 22.7932 21.9502 22.0832 22.3181 21.2753C22.7104 20.4429 23.0293 19.5616 23.2745 18.6313C23.5443 17.6765 23.7405 16.6972 23.8631 15.6935C24.0102 14.6652 24.0715 13.637 24.047 12.6088C23.998 10.3565 23.6792 8.59378 23.0906 7.32072C22.502 6.02321 21.7295 5.10514 20.773 4.56654C19.8411 4.02793 18.7866 3.81986 17.6095 3.94225C16.4323 4.04019 15.2306 4.38292 14.0044 4.97049C12.8027 5.53358 11.6379 6.26803 10.5098 7.17384C9.4062 8.07966 8.42524 9.07118 7.56689 10.1484C6.73306 11.2011 6.09544 12.2783 5.65401 13.38C5.21258 14.4816 5.0777 15.5099 5.24937 16.4646C5.49461 17.9091 6.02187 19.1454 6.83118 20.1736C7.64047 21.1774 8.60916 22.0587 9.73727 22.8177C10.8899 23.5766 12.1406 24.2498 13.4894 24.8374C14.8628 25.425 16.2361 26.0125 17.6095 26.6001C18.9828 27.1877 20.2948 27.8242 21.5456 28.5097C22.8208 29.1952 23.9366 30.0029 24.8931 30.9334C25.8495 31.8637 26.5852 32.9775 27.1002 34.2752C27.6153 35.5482 27.8114 37.0783 27.6888 38.8654C27.5907 40.1873 27.2351 41.3381 26.622 42.3172C26.0334 43.2966 25.2855 44.1291 24.3781 44.8145C23.4707 45.4999 22.4775 46.0509 21.3984 46.4669C20.3194 46.9077 19.2526 47.2505 18.198 47.4951C17.168 47.74 16.1993 47.8992 15.2919 47.9727C14.4091 48.0707 13.7102 48.1195 13.1951 48.1195C10.4239 48.1195 8.19224 47.7645 6.50009 47.0546C4.80794 46.3446 3.55722 45.4632 2.74793 44.4104C1.96316 43.3822 1.57077 42.2684 1.57077 41.0687C1.5953 39.8447 1.92637 38.7431 2.564 37.7637C3.20162 36.76 4.10901 35.9642 5.28616 35.3768C6.48784 34.7891 7.86117 34.581 9.4062 34.7524C9.77405 34.8016 10.0193 34.9117 10.1419 35.0831C10.2891 35.23 10.3504 35.4014 10.3258 35.5971C10.3258 35.7685 10.24 35.9275 10.0683 36.0746C9.92118 36.2215 9.73727 36.2949 9.51654 36.2949C7.94702 36.3192 6.73306 36.5886 5.87474 37.1029C5.01639 37.6169 4.4646 38.2413 4.21938 38.9755C3.99865 39.6855 4.04771 40.4689 4.3665 41.326C4.70984 42.1582 5.29843 42.917 6.13223 43.6027C6.96606 44.3127 8.00833 44.8879 9.25905 45.3285C10.5343 45.7693 11.9935 45.9529 13.6366 45.8795C15.6966 45.806 17.4255 45.5123 18.8234 44.9981C20.2213 44.4841 21.3494 43.8719 22.2077 43.1619C23.0661 42.4519 23.6792 41.7052 24.047 40.9218C24.4394 40.1139 24.6478 39.3796 24.6724 38.7185C24.7214 37.4454 24.4394 36.3683 23.8263 35.487C23.2132 34.581 22.3671 33.7855 21.2881 33.1001C20.2335 32.3901 19.0196 31.7536 17.6463 31.1904C16.2729 30.6273 14.8505 30.0642 13.3791 29.5011C11.9076 28.9137 10.4607 28.2771 9.03832 27.5916C7.61593 26.9061 6.32842 26.0982 5.17579 25.1679C4.02316 24.2131 3.06674 23.0992 2.3065 21.8262C1.57078 20.5531 1.14161 19.0352 1.01899 17.2725Z" fill="white"/>
<path d="M32.1845 22.5616C32.3318 22.4148 32.5648 22.3658 32.8835 22.4148C33.2268 22.4392 33.5701 22.5127 33.9136 22.6351C34.2812 22.7575 34.588 22.9044 34.8332 23.0757C35.103 23.2227 35.2254 23.3328 35.2011 23.4063C35.0048 24.1407 34.8578 25.1077 34.7597 26.3073C34.6859 27.5069 34.637 28.7922 34.6124 30.1632C34.6124 31.5343 34.6616 32.9175 34.7597 34.3129C34.8578 35.6837 34.9802 36.9325 35.1276 38.0585C35.2992 39.1847 35.5076 40.1028 35.7528 40.8128C36.0225 41.5227 36.3169 41.8777 36.6356 41.8777C36.881 41.8777 37.1383 41.5594 37.4081 40.9229C37.7025 40.2621 37.9968 39.3807 38.2909 38.279C38.5853 37.1773 38.8796 35.9043 39.174 34.4598C39.4681 33.0153 39.7503 31.5098 40.02 29.943C40.3141 28.3516 40.5839 26.7603 40.8293 25.1689C41.0991 23.5776 41.3443 22.072 41.5651 20.6521C41.5894 20.4072 41.7735 20.2848 42.1168 20.2848C42.4847 20.2604 42.8526 20.3093 43.2204 20.4317C43.6126 20.5297 43.9562 20.6765 44.2503 20.8724C44.5693 21.0683 44.7163 21.2763 44.6917 21.4967C44.5447 22.5494 44.4098 23.7857 44.2871 25.2057C44.1889 26.6011 44.1278 28.0455 44.1032 29.5389C44.1032 31.0322 44.1522 32.5013 44.2503 33.9455C44.373 35.39 44.5693 36.6752 44.839 37.8015C45.1331 38.9277 45.5256 39.8334 46.0162 40.5191C46.5311 41.2044 47.1688 41.5349 47.9288 41.5106C48.2232 41.5106 48.5054 41.2657 48.7752 40.776C49.0449 40.2864 49.2901 39.6498 49.5107 38.8664C49.7315 38.083 49.9277 37.2016 50.0994 36.2225C50.271 35.2432 50.4181 34.2516 50.5408 33.248C50.0502 33.0277 49.5599 32.7216 49.0693 32.3299C48.5789 31.9382 48.1129 31.4606 47.6715 30.8978C47.2544 30.3101 46.899 29.6368 46.6046 28.878C46.3103 28.0945 46.1265 27.2132 46.0529 26.2339C46.0529 26.038 46.0529 25.6953 46.0529 25.2057C46.0773 24.716 46.1265 24.1652 46.2 23.5532C46.2735 22.9411 46.3841 22.3046 46.5311 21.6436C46.6782 20.9826 46.8744 20.3828 47.1196 19.8442C47.3893 19.2811 47.7083 18.8159 48.0762 18.4487C48.4684 18.057 48.9344 17.8489 49.4739 17.8244C49.891 17.8 50.3445 17.9836 50.8352 18.3753C51.3501 18.7425 51.8036 19.3913 52.1961 20.3216C52.5886 21.2274 52.8705 22.4392 53.0422 23.9571C53.2384 25.475 53.2263 27.3478 53.0054 29.5756C52.9808 29.7716 52.9441 30.1265 52.8951 30.6405C52.8459 31.1548 52.7724 31.7422 52.6743 32.4033H52.8951C53.4836 32.3787 54.0355 32.1952 54.5505 31.8526C55.0654 31.4852 55.5314 31.0446 55.9482 30.5304C56.3896 29.9918 56.7699 29.4166 57.0886 28.8046C57.4319 28.1924 57.7141 27.6171 57.9347 27.0785C58.1555 26.5399 58.315 26.087 58.4128 25.7198C58.5355 25.3526 58.5969 25.1322 58.5969 25.0588C58.5969 24.9364 58.6583 24.8507 58.7807 24.8017C58.928 24.7528 59.0751 24.7405 59.2224 24.765C59.394 24.7895 59.5411 24.8629 59.6638 24.9853C59.8108 25.1077 59.8722 25.2791 59.8476 25.4995C59.823 25.6463 59.7619 25.9524 59.6638 26.4175C59.59 26.8582 59.443 27.3845 59.2224 27.9966C59.0016 28.584 58.7072 29.2206 58.3393 29.9063C57.996 30.5671 57.5546 31.1793 57.0151 31.7422C56.5002 32.3053 55.8747 32.7828 55.1389 33.1745C54.4277 33.5662 53.5939 33.7744 52.6375 33.7987H52.4537C52.2821 34.778 52.0612 35.7941 51.7915 36.8467C51.5217 37.8995 51.203 38.8664 50.8352 39.7478C50.4673 40.6292 50.038 41.3637 49.5474 41.9511C49.0571 42.5388 48.493 42.8571 47.8553 42.9059C46.9479 42.9794 46.1386 42.8204 45.4275 42.4287C44.7409 42.0124 44.14 41.486 43.6251 40.8495C43.1099 40.2129 42.6809 39.5151 42.3374 38.7563C41.9941 37.9729 41.7121 37.2508 41.4913 36.5897C41.2707 35.9043 41.1113 35.3166 41.0131 34.8269C40.915 34.3375 40.8661 34.0559 40.8661 33.9825C40.8415 34.0559 40.768 34.3496 40.6453 34.8636C40.5471 35.3533 40.4001 35.9531 40.2039 36.6631C40.0076 37.3731 39.7746 38.1319 39.5048 38.9398C39.2351 39.7478 38.9164 40.4945 38.5485 41.1799C38.2052 41.841 37.8128 42.4041 37.3713 42.8692C36.9299 43.3098 36.4639 43.5179 35.9736 43.4936C35.2378 43.4691 34.6002 43.1754 34.0607 42.6122C33.5211 42.0491 33.0673 41.3024 32.6997 40.3722C32.3318 39.4417 32.0375 38.3891 31.8166 37.2141C31.5961 36.0144 31.4366 34.7902 31.3384 33.5417C31.2403 32.2686 31.1914 31.0201 31.1914 29.7961C31.2157 28.5719 31.2649 27.458 31.3384 26.4542C31.4366 25.426 31.5593 24.5691 31.7063 23.8837C31.8534 23.1982 32.0129 22.7575 32.1845 22.5616ZM48.9222 26.2339C48.9222 26.4298 48.9468 26.7358 48.9957 27.152C49.0693 27.5682 49.1798 28.0333 49.3269 28.5474C49.4739 29.0616 49.658 29.5756 49.8785 30.0898C50.124 30.6038 50.4181 31.0568 50.7614 31.4485C50.8841 30.2 50.9822 29.1229 51.0557 28.2169C51.1292 27.2866 51.166 26.7358 51.166 26.5644C51.1417 25.4872 51.1171 24.5079 51.0925 23.6266C51.0925 22.7208 51.0436 21.9496 50.9454 21.3131C50.8719 20.6765 50.737 20.1869 50.5408 19.8442C50.3691 19.5014 50.124 19.3545 49.805 19.4035C49.6088 19.428 49.4496 19.5994 49.3269 19.9176C49.2287 20.2114 49.1428 20.5909 49.0693 21.056C49.0203 21.4967 48.9836 21.9863 48.959 22.5249C48.9344 23.0635 48.9101 23.5776 48.8855 24.0673C48.8855 24.5569 48.8855 25.0098 48.8855 25.426C48.9101 25.8177 48.9222 26.087 48.9222 26.2339Z" fill="white"/>
<path d="M67.5375 22.9281C67.8072 22.9036 68.1016 22.9281 68.4206 23.0016C68.7392 23.0506 69.0336 23.1485 69.3034 23.2954C69.5977 23.4178 69.8429 23.5646 70.0391 23.736C70.2354 23.9074 70.3332 24.0665 70.3332 24.2134C70.3332 24.2869 70.3089 24.6174 70.2597 25.2049C70.2108 25.7925 70.1494 26.5392 70.0759 27.445C70.0267 28.3508 69.9653 29.3667 69.8918 30.4929C69.8183 31.6192 69.7569 32.7697 69.708 33.9448C69.6834 35.1201 69.6588 36.2707 69.6345 37.3969C69.6099 38.5231 69.6221 39.5389 69.6712 40.4449C69.7202 41.3263 69.8061 42.0484 69.9286 42.6115C70.0513 43.1746 70.2229 43.4929 70.4438 43.5663C70.7625 43.664 71.1793 43.309 71.6945 42.5014C72.2094 41.6688 72.7489 40.6039 73.313 39.3065C73.9015 38.0089 74.4902 36.5889 75.0787 35.0467C75.6674 33.4796 76.2069 32.0108 76.6972 30.6398C77.1878 29.269 77.6046 28.106 77.9479 27.1512C78.2915 26.1964 78.4999 25.6578 78.5734 25.5354C78.6715 25.3885 78.794 25.3028 78.9413 25.2784C79.1129 25.2294 79.26 25.2417 79.3827 25.3151C79.5054 25.3641 79.5911 25.462 79.6403 25.6089C79.6892 25.7558 79.6646 25.9149 79.5665 26.0863C79.5176 26.1842 79.3949 26.5392 79.1986 27.1512C79.027 27.7633 78.794 28.5467 78.4999 29.5014C78.2301 30.4562 77.899 31.5212 77.5065 32.6962C77.1386 33.8713 76.7218 35.071 76.2558 36.2952C75.8144 37.5192 75.3484 38.7188 74.8581 39.8939C74.3675 41.0447 73.8647 42.073 73.3498 42.9786C72.8349 43.8846 72.3075 44.6188 71.768 45.182C71.2531 45.7451 70.7379 46.0388 70.2229 46.0633C69.708 46.1122 69.2542 45.9286 68.862 45.5126C68.4941 45.1207 68.1751 44.57 67.9054 43.86C67.6356 43.1746 67.4026 42.3545 67.2066 41.3997C67.035 40.4449 66.9001 39.4166 66.802 38.315C66.5811 38.7801 66.2992 39.2698 65.9559 39.7838C65.637 40.298 65.2691 40.7874 64.8523 41.2526C64.4352 41.718 63.9816 42.1097 63.491 42.4279C63.0253 42.7462 62.5347 42.9298 62.0198 42.9786C61.3821 43.0521 60.6342 42.9908 59.7757 42.7951C58.9418 42.5748 58.1325 42.1464 57.3479 41.5098C56.5878 40.8487 55.9377 39.9306 55.3982 38.7555C54.8586 37.5559 54.5889 36.0137 54.5889 34.1286C54.5889 33.8592 54.6256 33.3941 54.6994 32.733C54.7729 32.0721 54.92 31.3255 55.1408 30.4929C55.3368 29.6607 55.619 28.7914 55.9869 27.8857C56.3791 26.9554 56.8697 26.1108 57.4581 25.3518C58.0715 24.5684 58.8069 23.9196 59.6654 23.4055C60.5236 22.8914 61.5416 22.6099 62.7185 22.5609C63.7732 22.5119 64.656 22.6833 65.3672 23.075C66.0784 23.4422 66.6547 23.9074 67.0961 24.4705C67.2434 23.4667 67.3904 22.9526 67.5375 22.9281ZM61.7254 41.5098C62.4612 41.5098 63.0988 41.2159 63.6384 40.6284C64.2022 40.0165 64.6806 39.3065 65.0728 38.4985C65.4653 37.6906 65.784 36.8705 66.0295 36.038C66.2746 35.2057 66.4709 34.5692 66.6179 34.1286C66.5933 32.8064 66.6057 31.5336 66.6547 30.3094C66.7039 29.0854 66.7652 27.9591 66.8387 26.9309C66.716 26.0006 66.336 25.2172 65.6983 24.5807C65.0607 23.9441 64.1165 23.6748 62.8658 23.7727C62.2282 23.8217 61.6151 24.2012 61.0264 24.9112C60.4626 25.6211 59.9474 26.478 59.4814 27.4817C59.04 28.4855 58.6845 29.5748 58.4147 30.7499C58.1693 31.9007 58.059 32.9535 58.0836 33.9081C58.0836 34.104 58.0958 34.4345 58.1204 34.8996C58.145 35.3404 58.1939 35.8422 58.2674 36.4054C58.3655 36.9685 58.4883 37.5559 58.6353 38.1681C58.7826 38.7555 58.991 39.3065 59.2608 39.8205C59.5306 40.3102 59.8617 40.714 60.2539 41.0323C60.671 41.3506 61.1613 41.5098 61.7254 41.5098Z" fill="white"/>
<path d="M88.1523 12.8664C88.1766 12.6216 88.3607 12.4624 88.704 12.389C89.0473 12.2911 89.4276 12.2543 89.8444 12.2788C90.2858 12.3033 90.6783 12.389 91.0216 12.5359C91.3894 12.6583 91.5978 12.8052 91.6468 12.9765C91.6714 13.0745 91.6592 13.5029 91.61 14.2618C91.5611 14.9963 91.4876 15.9511 91.3894 17.1262C91.2913 18.3013 91.1686 19.6356 91.0216 21.129C90.8745 22.5979 90.7272 24.1035 90.5802 25.6458C90.4328 27.1637 90.2858 28.6694 90.1388 30.1627C90.016 31.6315 89.8933 32.9538 89.7709 34.1288C89.6727 35.3039 89.5868 36.2709 89.5133 37.0297C89.4643 37.7642 89.4397 38.1805 89.4397 38.2785C89.4643 38.4496 89.5011 38.8538 89.55 39.4903C89.5992 40.1268 89.6973 40.8001 89.8444 41.5101C89.9914 42.1955 90.2001 42.8074 90.4699 43.346C90.7396 43.9091 91.1197 44.1785 91.61 44.1539C91.9779 44.1297 92.3704 43.8481 92.7872 43.3093C93.2286 42.7953 93.6703 42.122 94.1117 41.2895C94.5531 40.4327 94.9945 39.4657 95.4359 38.3886C95.8773 37.287 96.2941 36.1607 96.6866 35.0102C97.1034 33.8594 97.4837 32.7332 97.827 31.6315C98.1949 30.5299 98.5136 29.5383 98.7833 28.657C99.0777 27.7757 99.3107 27.0535 99.4823 26.4905C99.6786 25.9029 99.801 25.5602 99.8502 25.4622C99.9483 25.2909 100.071 25.1807 100.218 25.1317C100.365 25.0828 100.5 25.0828 100.623 25.1317C100.745 25.1807 100.843 25.2786 100.917 25.4255C100.991 25.5479 101.015 25.707 100.991 25.9029C100.941 26.0743 100.77 26.6863 100.475 27.739C100.206 28.7674 99.8378 30.0035 99.372 31.448C98.906 32.8925 98.3665 34.4471 97.7535 36.1119C97.1401 37.7521 96.4782 39.27 95.767 40.6654C95.0802 42.0608 94.369 43.2237 93.6332 44.1539C92.9221 45.1088 92.2233 45.5985 91.5365 45.623C90.8988 45.6719 90.335 45.5129 89.8444 45.1455C89.3538 44.8029 88.9248 44.3499 88.5569 43.7868C88.2137 43.2237 87.9315 42.5993 87.7109 41.9139C87.49 41.2285 87.3306 40.5795 87.2327 39.9676C86.7421 40.8001 86.0923 41.5711 85.283 42.281C84.4981 42.991 83.5785 43.3706 82.524 43.4197C81.1996 43.444 80.0716 43.1624 79.1396 42.575C78.2078 41.9873 77.4596 41.2039 76.8958 40.2246C76.3317 39.2455 75.9392 38.1314 75.7186 36.8829C75.4978 35.6098 75.4364 34.3246 75.5345 33.0272C75.6327 31.705 75.8903 30.4197 76.3071 29.1712C76.7241 27.8982 77.2758 26.772 77.9624 25.7927C78.6738 24.789 79.5199 23.9933 80.5008 23.4058C81.5064 22.7937 82.6222 22.4877 83.8483 22.4877C84.3632 22.4877 84.817 22.6101 85.2092 22.8549C85.6263 23.0752 85.9818 23.369 86.2761 23.7363C86.5951 24.1035 86.8524 24.5074 87.0486 24.9481C87.2695 25.3888 87.4533 25.8295 87.6003 26.2701L88.1523 12.8664ZM82.3767 41.9873C83.2106 41.9628 83.9096 41.6936 84.4737 41.1794C85.0622 40.6654 85.5282 40.0777 85.8715 39.4169C86.2394 38.7312 86.5213 38.058 86.7175 37.3971C86.9138 36.7114 87.0732 36.1853 87.1957 35.8179L87.4533 29.5016C87.2816 29.4282 87.1835 29.2079 87.1589 28.8408C87.11 28.498 87.0119 28.0695 86.8648 27.5554C86.7175 27.0168 86.497 26.5149 86.2026 26.0498C85.9328 25.5602 85.5896 25.1562 85.1725 24.8379C84.7557 24.4952 84.2651 24.3483 83.7012 24.3973C83.039 24.4462 82.4381 24.7523 81.8986 25.3153C81.359 25.8539 80.893 26.5517 80.5008 27.4085C80.1083 28.2409 79.7897 29.1834 79.5442 30.2362C79.3236 31.289 79.1763 32.3661 79.1028 33.4677C79.0293 34.5448 79.0293 35.6098 79.1028 36.6626C79.2009 37.6908 79.385 38.6089 79.6548 39.4169C79.9245 40.2003 80.28 40.8368 80.7214 41.3265C81.1874 41.7916 81.7391 42.0119 82.3767 41.9873Z" fill="white"/>
<path d="M1.01899 17.2725C0.920891 15.7792 1.20292 14.2613 1.86506 12.719C2.55173 11.1766 3.48365 9.71995 4.66081 8.34896C5.83795 6.95351 7.18677 5.70494 8.70725 4.60328C10.2277 3.50158 11.785 2.64472 13.3791 2.03268C14.9977 1.39616 16.5795 1.05341 18.1245 1.00445C19.694 0.955488 21.0796 1.31047 22.2813 2.06941C23.5075 2.80386 24.4884 3.97899 25.2242 5.59477C25.9844 7.21056 26.3645 9.3772 26.3645 12.0947C26.3645 13.1229 26.2664 14.1634 26.0702 15.2161C25.8986 16.2688 25.6411 17.297 25.2977 18.3008C24.9544 19.2801 24.5375 20.2226 24.047 21.1284C23.5811 22.0098 23.0538 22.7932 22.4652 23.4787C22.3671 23.6011 22.1954 23.7112 21.9502 23.8092C21.7295 23.9071 21.521 23.9683 21.3248 23.9928C21.1287 23.9928 20.9815 23.9561 20.8834 23.8826C20.7853 23.7847 20.8344 23.6256 21.0306 23.4052C21.521 22.7932 21.9502 22.0832 22.3181 21.2753C22.7104 20.4429 23.0293 19.5616 23.2745 18.6313C23.5443 17.6765 23.7405 16.6972 23.8631 15.6935C24.0102 14.6652 24.0715 13.637 24.047 12.6088C23.998 10.3565 23.6792 8.59378 23.0906 7.32072C22.502 6.02321 21.7295 5.10514 20.773 4.56654C19.8411 4.02793 18.7866 3.81986 17.6095 3.94225C16.4323 4.04019 15.2306 4.38292 14.0044 4.97049C12.8027 5.53358 11.6379 6.26803 10.5098 7.17384C9.4062 8.07966 8.42524 9.07118 7.56689 10.1484C6.73306 11.2011 6.09544 12.2783 5.65401 13.38C5.21258 14.4816 5.0777 15.5099 5.24937 16.4646C5.49461 17.9091 6.02187 19.1454 6.83118 20.1736C7.64047 21.1774 8.60916 22.0587 9.73727 22.8177C10.8899 23.5766 12.1406 24.2498 13.4894 24.8374C14.8628 25.425 16.2361 26.0125 17.6095 26.6001C18.9828 27.1877 20.2948 27.8242 21.5456 28.5097C22.8208 29.1952 23.9366 30.0029 24.8931 30.9334C25.8495 31.8637 26.5852 32.9775 27.1002 34.2752C27.6153 35.5482 27.8114 37.0783 27.6888 38.8654C27.5907 40.1873 27.2351 41.3381 26.622 42.3172C26.0334 43.2966 25.2855 44.1291 24.3781 44.8145C23.4707 45.4999 22.4775 46.0509 21.3984 46.4669C20.3194 46.9077 19.2526 47.2505 18.198 47.4951C17.168 47.74 16.1993 47.8992 15.2919 47.9727C14.4091 48.0707 13.7102 48.1195 13.1951 48.1195C10.4239 48.1195 8.19224 47.7645 6.50009 47.0546C4.80794 46.3446 3.55722 45.4632 2.74793 44.4104C1.96316 43.3822 1.57077 42.2684 1.57077 41.0687C1.5953 39.8447 1.92637 38.7431 2.564 37.7637C3.20162 36.76 4.10901 35.9642 5.28616 35.3768C6.48784 34.7891 7.86117 34.581 9.4062 34.7524C9.77405 34.8016 10.0193 34.9117 10.1419 35.0831C10.2891 35.23 10.3504 35.4014 10.3258 35.5971C10.3258 35.7685 10.24 35.9275 10.0683 36.0746C9.92118 36.2215 9.73727 36.2949 9.51654 36.2949C7.94702 36.3192 6.73306 36.5886 5.87474 37.1029C5.01639 37.6169 4.4646 38.2413 4.21938 38.9755C3.99865 39.6855 4.04771 40.4689 4.3665 41.326C4.70984 42.1582 5.29843 42.917 6.13223 43.6027C6.96606 44.3127 8.00833 44.8879 9.25905 45.3285C10.5343 45.7693 11.9935 45.9529 13.6366 45.8795C15.6966 45.806 17.4255 45.5123 18.8234 44.9981C20.2213 44.4841 21.3494 43.8719 22.2077 43.1619C23.0661 42.4519 23.6792 41.7052 24.047 40.9218C24.4394 40.1139 24.6478 39.3796 24.6724 38.7185C24.7214 37.4454 24.4394 36.3683 23.8263 35.487C23.2132 34.581 22.3671 33.7855 21.2881 33.1001C20.2335 32.3901 19.0196 31.7536 17.6463 31.1904C16.2729 30.6273 14.8505 30.0642 13.3791 29.5011C11.9076 28.9137 10.4607 28.2771 9.03832 27.5916C7.61593 26.9061 6.32842 26.0982 5.17579 25.1679C4.02316 24.2131 3.06674 23.0992 2.3065 21.8262C1.57078 20.5531 1.14161 19.0352 1.01899 17.2725Z" stroke="white" stroke-width="0.5"/>
<path d="M32.1845 22.5616C32.3318 22.4148 32.5648 22.3658 32.8835 22.4148C33.2268 22.4392 33.5701 22.5127 33.9136 22.6351C34.2812 22.7575 34.588 22.9044 34.8332 23.0757C35.103 23.2227 35.2254 23.3328 35.2011 23.4063C35.0048 24.1407 34.8578 25.1077 34.7597 26.3073C34.6859 27.5069 34.637 28.7922 34.6124 30.1632C34.6124 31.5343 34.6616 32.9175 34.7597 34.3129C34.8578 35.6837 34.9802 36.9325 35.1276 38.0585C35.2992 39.1847 35.5076 40.1028 35.7528 40.8128C36.0225 41.5227 36.3169 41.8777 36.6356 41.8777C36.881 41.8777 37.1383 41.5594 37.4081 40.9229C37.7025 40.2621 37.9968 39.3807 38.2909 38.279C38.5853 37.1773 38.8796 35.9043 39.174 34.4598C39.4681 33.0153 39.7503 31.5098 40.02 29.943C40.3141 28.3516 40.5839 26.7603 40.8293 25.1689C41.0991 23.5776 41.3443 22.072 41.5651 20.6521C41.5894 20.4072 41.7735 20.2848 42.1168 20.2848C42.4847 20.2604 42.8526 20.3093 43.2204 20.4317C43.6126 20.5297 43.9562 20.6765 44.2503 20.8724C44.5693 21.0683 44.7163 21.2763 44.6917 21.4967C44.5447 22.5494 44.4098 23.7857 44.2871 25.2057C44.1889 26.6011 44.1278 28.0455 44.1032 29.5389C44.1032 31.0322 44.1522 32.5013 44.2503 33.9455C44.373 35.39 44.5693 36.6752 44.839 37.8015C45.1331 38.9277 45.5256 39.8334 46.0162 40.5191C46.5311 41.2044 47.1688 41.5349 47.9288 41.5106C48.2232 41.5106 48.5054 41.2657 48.7752 40.776C49.0449 40.2864 49.2901 39.6498 49.5107 38.8664C49.7315 38.083 49.9277 37.2016 50.0994 36.2225C50.271 35.2432 50.4181 34.2516 50.5408 33.248C50.0502 33.0277 49.5599 32.7216 49.0693 32.3299C48.5789 31.9382 48.1129 31.4606 47.6715 30.8978C47.2544 30.3101 46.899 29.6368 46.6046 28.878C46.3103 28.0945 46.1265 27.2132 46.0529 26.2339C46.0529 26.038 46.0529 25.6953 46.0529 25.2057C46.0773 24.716 46.1265 24.1652 46.2 23.5532C46.2735 22.9411 46.3841 22.3046 46.5311 21.6436C46.6782 20.9826 46.8744 20.3828 47.1196 19.8442C47.3893 19.2811 47.7083 18.8159 48.0762 18.4487C48.4684 18.057 48.9344 17.8489 49.4739 17.8244C49.891 17.8 50.3445 17.9836 50.8352 18.3753C51.3501 18.7425 51.8036 19.3913 52.1961 20.3216C52.5886 21.2274 52.8705 22.4392 53.0422 23.9571C53.2384 25.475 53.2263 27.3478 53.0054 29.5756C52.9808 29.7716 52.9441 30.1265 52.8951 30.6405C52.8459 31.1548 52.7724 31.7422 52.6743 32.4033H52.8951C53.4836 32.3787 54.0355 32.1952 54.5505 31.8526C55.0654 31.4852 55.5314 31.0446 55.9482 30.5304C56.3896 29.9918 56.7699 29.4166 57.0886 28.8046C57.4319 28.1924 57.7141 27.6171 57.9347 27.0785C58.1555 26.5399 58.315 26.087 58.4128 25.7198C58.5355 25.3526 58.5969 25.1322 58.5969 25.0588C58.5969 24.9364 58.6583 24.8507 58.7807 24.8017C58.928 24.7528 59.0751 24.7405 59.2224 24.765C59.394 24.7895 59.5411 24.8629 59.6638 24.9853C59.8108 25.1077 59.8722 25.2791 59.8476 25.4995C59.823 25.6463 59.7619 25.9524 59.6638 26.4175C59.59 26.8582 59.443 27.3845 59.2224 27.9966C59.0016 28.584 58.7072 29.2206 58.3393 29.9063C57.996 30.5671 57.5546 31.1793 57.0151 31.7422C56.5002 32.3053 55.8747 32.7828 55.1389 33.1745C54.4277 33.5662 53.5939 33.7744 52.6375 33.7987H52.4537C52.2821 34.778 52.0612 35.7941 51.7915 36.8467C51.5217 37.8995 51.203 38.8664 50.8352 39.7478C50.4673 40.6292 50.038 41.3637 49.5474 41.9511C49.0571 42.5388 48.493 42.8571 47.8553 42.9059C46.9479 42.9794 46.1386 42.8204 45.4275 42.4287C44.7409 42.0124 44.14 41.486 43.6251 40.8495C43.1099 40.2129 42.6809 39.5151 42.3374 38.7563C41.9941 37.9729 41.7121 37.2508 41.4913 36.5897C41.2707 35.9043 41.1113 35.3166 41.0131 34.8269C40.915 34.3375 40.8661 34.0559 40.8661 33.9825C40.8415 34.0559 40.768 34.3496 40.6453 34.8636C40.5471 35.3533 40.4001 35.9531 40.2039 36.6631C40.0076 37.3731 39.7746 38.1319 39.5048 38.9398C39.2351 39.7478 38.9164 40.4945 38.5485 41.1799C38.2052 41.841 37.8128 42.4041 37.3713 42.8692C36.9299 43.3098 36.4639 43.5179 35.9736 43.4936C35.2378 43.4691 34.6002 43.1754 34.0607 42.6122C33.5211 42.0491 33.0673 41.3024 32.6997 40.3722C32.3318 39.4417 32.0375 38.3891 31.8166 37.2141C31.5961 36.0144 31.4366 34.7902 31.3384 33.5417C31.2403 32.2686 31.1914 31.0201 31.1914 29.7961C31.2157 28.5719 31.2649 27.458 31.3384 26.4542C31.4366 25.426 31.5593 24.5691 31.7063 23.8837C31.8534 23.1982 32.0129 22.7575 32.1845 22.5616ZM48.9222 26.2339C48.9222 26.4298 48.9468 26.7358 48.9957 27.152C49.0693 27.5682 49.1798 28.0333 49.3269 28.5474C49.4739 29.0616 49.658 29.5756 49.8785 30.0898C50.124 30.6038 50.4181 31.0568 50.7614 31.4485C50.8841 30.2 50.9822 29.1229 51.0557 28.2169C51.1292 27.2866 51.166 26.7358 51.166 26.5644C51.1417 25.4872 51.1171 24.5079 51.0925 23.6266C51.0925 22.7208 51.0436 21.9496 50.9454 21.3131C50.8719 20.6765 50.737 20.1869 50.5408 19.8442C50.3691 19.5014 50.124 19.3545 49.805 19.4035C49.6088 19.428 49.4496 19.5994 49.3269 19.9176C49.2287 20.2114 49.1428 20.5909 49.0693 21.056C49.0203 21.4967 48.9836 21.9863 48.959 22.5249C48.9344 23.0635 48.9101 23.5776 48.8855 24.0673C48.8855 24.5569 48.8855 25.0098 48.8855 25.426C48.9101 25.8177 48.9222 26.087 48.9222 26.2339Z" stroke="white" stroke-width="0.5"/>
<path d="M67.5375 22.9281C67.8072 22.9036 68.1016 22.9281 68.4206 23.0016C68.7392 23.0506 69.0336 23.1485 69.3034 23.2954C69.5977 23.4178 69.8429 23.5646 70.0391 23.736C70.2354 23.9074 70.3332 24.0665 70.3332 24.2134C70.3332 24.2869 70.3089 24.6174 70.2597 25.2049C70.2108 25.7925 70.1494 26.5392 70.0759 27.445C70.0267 28.3508 69.9653 29.3667 69.8918 30.4929C69.8183 31.6192 69.7569 32.7697 69.708 33.9448C69.6834 35.1201 69.6588 36.2707 69.6345 37.3969C69.6099 38.5231 69.6221 39.5389 69.6712 40.4449C69.7202 41.3263 69.8061 42.0484 69.9286 42.6115C70.0513 43.1746 70.2229 43.4929 70.4438 43.5663C70.7625 43.664 71.1793 43.309 71.6945 42.5014C72.2094 41.6688 72.7489 40.6039 73.313 39.3065C73.9015 38.0089 74.4902 36.5889 75.0787 35.0467C75.6674 33.4796 76.2069 32.0108 76.6972 30.6398C77.1878 29.269 77.6046 28.106 77.9479 27.1512C78.2915 26.1964 78.4999 25.6578 78.5734 25.5354C78.6715 25.3885 78.794 25.3028 78.9413 25.2784C79.1129 25.2294 79.26 25.2417 79.3827 25.3151C79.5054 25.3641 79.5911 25.462 79.6403 25.6089C79.6892 25.7558 79.6646 25.9149 79.5665 26.0863C79.5176 26.1842 79.3949 26.5392 79.1986 27.1512C79.027 27.7633 78.794 28.5467 78.4999 29.5014C78.2301 30.4562 77.899 31.5212 77.5065 32.6962C77.1386 33.8713 76.7218 35.071 76.2558 36.2952C75.8144 37.5192 75.3484 38.7188 74.8581 39.8939C74.3675 41.0447 73.8647 42.073 73.3498 42.9786C72.8349 43.8846 72.3075 44.6188 71.768 45.182C71.2531 45.7451 70.7379 46.0388 70.2229 46.0633C69.708 46.1122 69.2542 45.9286 68.862 45.5126C68.4941 45.1207 68.1751 44.57 67.9054 43.86C67.6356 43.1746 67.4026 42.3545 67.2066 41.3997C67.035 40.4449 66.9001 39.4166 66.802 38.315C66.5811 38.7801 66.2992 39.2698 65.9559 39.7838C65.637 40.298 65.2691 40.7874 64.8523 41.2526C64.4352 41.718 63.9816 42.1097 63.491 42.4279C63.0253 42.7462 62.5347 42.9298 62.0198 42.9786C61.3821 43.0521 60.6342 42.9908 59.7757 42.7951C58.9418 42.5748 58.1325 42.1464 57.3479 41.5098C56.5878 40.8487 55.9377 39.9306 55.3982 38.7555C54.8586 37.5559 54.5889 36.0137 54.5889 34.1286C54.5889 33.8592 54.6256 33.3941 54.6994 32.733C54.7729 32.0721 54.92 31.3255 55.1408 30.4929C55.3368 29.6607 55.619 28.7914 55.9869 27.8857C56.3791 26.9554 56.8697 26.1108 57.4581 25.3518C58.0715 24.5684 58.8069 23.9196 59.6654 23.4055C60.5236 22.8914 61.5416 22.6099 62.7185 22.5609C63.7732 22.5119 64.656 22.6833 65.3672 23.075C66.0784 23.4422 66.6547 23.9074 67.0961 24.4705C67.2434 23.4667 67.3904 22.9526 67.5375 22.9281ZM61.7254 41.5098C62.4612 41.5098 63.0988 41.2159 63.6384 40.6284C64.2022 40.0165 64.6806 39.3065 65.0728 38.4985C65.4653 37.6906 65.784 36.8705 66.0295 36.038C66.2746 35.2057 66.4709 34.5692 66.6179 34.1286C66.5933 32.8064 66.6057 31.5336 66.6547 30.3094C66.7039 29.0854 66.7652 27.9591 66.8387 26.9309C66.716 26.0006 66.336 25.2172 65.6983 24.5807C65.0607 23.9441 64.1165 23.6748 62.8658 23.7727C62.2282 23.8217 61.6151 24.2012 61.0264 24.9112C60.4626 25.6211 59.9474 26.478 59.4814 27.4817C59.04 28.4855 58.6845 29.5748 58.4147 30.7499C58.1693 31.9007 58.059 32.9535 58.0836 33.9081C58.0836 34.104 58.0958 34.4345 58.1204 34.8996C58.145 35.3404 58.1939 35.8422 58.2674 36.4054C58.3655 36.9685 58.4883 37.5559 58.6353 38.1681C58.7826 38.7555 58.991 39.3065 59.2608 39.8205C59.5306 40.3102 59.8617 40.714 60.2539 41.0323C60.671 41.3506 61.1613 41.5098 61.7254 41.5098Z" stroke="white" stroke-width="0.5"/>
<path d="M88.1523 12.8664C88.1766 12.6216 88.3607 12.4624 88.704 12.389C89.0473 12.2911 89.4276 12.2543 89.8444 12.2788C90.2858 12.3033 90.6783 12.389 91.0216 12.5359C91.3894 12.6583 91.5978 12.8052 91.6468 12.9765C91.6714 13.0745 91.6592 13.5029 91.61 14.2618C91.5611 14.9963 91.4876 15.9511 91.3894 17.1262C91.2913 18.3013 91.1686 19.6356 91.0216 21.129C90.8745 22.5979 90.7272 24.1035 90.5802 25.6458C90.4328 27.1637 90.2858 28.6694 90.1388 30.1627C90.016 31.6315 89.8933 32.9538 89.7709 34.1288C89.6727 35.3039 89.5868 36.2709 89.5133 37.0297C89.4643 37.7642 89.4397 38.1805 89.4397 38.2785C89.4643 38.4496 89.5011 38.8538 89.55 39.4903C89.5992 40.1268 89.6973 40.8001 89.8444 41.5101C89.9914 42.1955 90.2001 42.8074 90.4699 43.346C90.7396 43.9091 91.1197 44.1785 91.61 44.1539C91.9779 44.1297 92.3704 43.8481 92.7872 43.3093C93.2286 42.7953 93.6703 42.122 94.1117 41.2895C94.5531 40.4327 94.9945 39.4657 95.4359 38.3886C95.8773 37.287 96.2941 36.1607 96.6866 35.0102C97.1034 33.8594 97.4837 32.7332 97.827 31.6315C98.1949 30.5299 98.5136 29.5383 98.7833 28.657C99.0777 27.7757 99.3107 27.0535 99.4823 26.4905C99.6786 25.9029 99.801 25.5602 99.8502 25.4622C99.9483 25.2909 100.071 25.1807 100.218 25.1317C100.365 25.0828 100.5 25.0828 100.623 25.1317C100.745 25.1807 100.843 25.2786 100.917 25.4255C100.991 25.5479 101.015 25.707 100.991 25.9029C100.941 26.0743 100.77 26.6863 100.475 27.739C100.206 28.7674 99.8378 30.0035 99.372 31.448C98.906 32.8925 98.3665 34.4471 97.7535 36.1119C97.1401 37.7521 96.4782 39.27 95.767 40.6654C95.0802 42.0608 94.369 43.2237 93.6332 44.1539C92.9221 45.1088 92.2233 45.5985 91.5365 45.623C90.8988 45.6719 90.335 45.5129 89.8444 45.1455C89.3538 44.8029 88.9248 44.3499 88.5569 43.7868C88.2137 43.2237 87.9315 42.5993 87.7109 41.9139C87.49 41.2285 87.3306 40.5795 87.2327 39.9676C86.7421 40.8001 86.0923 41.5711 85.283 42.281C84.4981 42.991 83.5785 43.3706 82.524 43.4197C81.1996 43.444 80.0716 43.1624 79.1396 42.575C78.2078 41.9873 77.4596 41.2039 76.8958 40.2246C76.3317 39.2455 75.9392 38.1314 75.7186 36.8829C75.4978 35.6098 75.4364 34.3246 75.5345 33.0272C75.6327 31.705 75.8903 30.4197 76.3071 29.1712C76.7241 27.8982 77.2758 26.772 77.9624 25.7927C78.6738 24.789 79.5199 23.9933 80.5008 23.4058C81.5064 22.7937 82.6222 22.4877 83.8483 22.4877C84.3632 22.4877 84.817 22.6101 85.2092 22.8549C85.6263 23.0752 85.9818 23.369 86.2761 23.7363C86.5951 24.1035 86.8524 24.5074 87.0486 24.9481C87.2695 25.3888 87.4533 25.8295 87.6003 26.2701L88.1523 12.8664ZM82.3767 41.9873C83.2106 41.9628 83.9096 41.6936 84.4737 41.1794C85.0622 40.6654 85.5282 40.0777 85.8715 39.4169C86.2394 38.7312 86.5213 38.058 86.7175 37.3971C86.9138 36.7114 87.0732 36.1853 87.1957 35.8179L87.4533 29.5016C87.2816 29.4282 87.1835 29.2079 87.1589 28.8408C87.11 28.498 87.0119 28.0695 86.8648 27.5554C86.7175 27.0168 86.497 26.5149 86.2026 26.0498C85.9328 25.5602 85.5896 25.1562 85.1725 24.8379C84.7557 24.4952 84.2651 24.3483 83.7012 24.3973C83.039 24.4462 82.4381 24.7523 81.8986 25.3153C81.359 25.8539 80.893 26.5517 80.5008 27.4085C80.1083 28.2409 79.7897 29.1834 79.5442 30.2362C79.3236 31.289 79.1763 32.3661 79.1028 33.4677C79.0293 34.5448 79.0293 35.6098 79.1028 36.6626C79.2009 37.6908 79.385 38.6089 79.6548 39.4169C79.9245 40.2003 80.28 40.8368 80.7214 41.3265C81.1874 41.7916 81.7391 42.0119 82.3767 41.9873Z" stroke="white" stroke-width="0.5"/>
</svg>
